<svg xmlns="http://www.w3.org/2000/svg" width="108" height="36" viewBox="0 0 108 36">
    <g>
        <path fill="#F0F1F1" fill-rule="evenodd" d="M6.342 11.967H.957c-.2 0-.4 0-.6.2 0 .2-.198.2-.198.4v1.993c0 .2 0 .4.198.6.2.198.4.198.6.198h2.79v14.36c0 1.397-1.196 2.594-2.392 2.594h-.4c-.2 0-.398 0-.598.2-.2.2-.2.398-.2.598v1.994c0 .2 0 .4.2.6.2.198.4.198.6.198h.198c3.192 0 5.785-2.792 5.785-5.984V12.566c0-.2 0-.4-.2-.6h-.398m6.98 0H11.33c-.2 0-.2 0-.4.2s-.2.2-.2.4v14.76c0 .2 0 .398.2.598.2.2.4.2.598.2h1.795c.2 0 .4 0 .598-.2.2-.2.2-.4.2-.598v-14.76c0-.2 0-.4-.198-.6h-.6m17.154 0H28.88c-.598 0-.997.2-.997.4l-4.388 9.973-4.188-9.974c0-.4-.4-.4-.6-.4h-1.993c-.4 0-.598 0-.598.2-.2.2-.2.4 0 .6l6.78 15.357c.2.2.4.4.6.4h.2c.198 0 .597-.2.597-.4l6.782-15.358c.2-.2.2-.4 0-.598-.2-.2-.4-.2-.6-.2m9.176-.4c-2.193.002-3.988.8-5.584 2.594-1.595 1.597-2.393 3.592-2.393 5.985 0 2.393.798 4.388 2.393 5.984 1.596 1.794 3.39 2.592 5.585 2.592s3.99-.798 5.586-2.593c1.596-1.796 2.394-3.79 2.394-5.985 0-2.393-.798-4.388-2.394-5.984-1.596-1.794-3.59-2.591-5.585-2.591m3.193 12.165c-.798.998-1.995 1.596-3.192 1.596-1.395 0-2.392-.398-3.39-1.395-.797-.998-1.396-2.194-1.396-3.79 0-1.396.4-2.792 1.397-3.59.798-.997 1.995-1.396 3.39-1.396 1.398 0 2.395.398 3.193 1.395.797.997 1.396 2.194 1.396 3.59s-.6 2.593-1.397 3.59m19.147-.598c-.398-.4-.797-.2-.997 0l-.4.4-.597.597c-.2.2-.4.2-.6.4-.198.2-.597.398-.796.398-.4 0-.6.2-.998.2-1.396 0-2.393-.6-3.19-1.596-.8-.998-1.397-2.194-1.397-3.79 0-1.396.4-2.792 1.396-3.79.998-.997 1.996-1.396 3.392-1.396 1.197 0 2.194.6 3.19 1.596.4.4.8.4.998.2l1.197-1.197s0-.4-.4-.8c-1.395-1.794-3.39-2.79-5.584-2.79-2.194-.002-3.99.796-5.584 2.59-1.597 1.597-2.395 3.592-2.395 5.985 0 2.393.798 4.388 2.394 6.183 1.594 1.596 3.39 2.394 5.583 2.394 2.593 0 4.588-1.197 5.984-3.39.2-.4.2-.8-.2-1.198l-.997-.997m11.57-11.569c-1.597 0-2.993.6-4.59 1.796V4.986c0-.2 0-.4-.198-.598-.2-.2-.4-.2-.6-.2H66.38c-.2 0-.398 0-.598.2-.2.2-.2.4-.2.598v22.54c0 .198 0 .398.2.597.2.2.4.2.598.2h1.796c.598 0 .797-.2.797-.798V17.353c.2-.6.8-.998 1.398-1.596.797-.598 1.795-.798 2.792-.798.997 0 1.795.398 2.393 1.196.6.798.798 1.795.798 3.19v8.378c0 .2 0 .4.2.6.2.198.4.198.6.198h1.794c.2 0 .4 0 .6-.2.198-.2.198-.398.198-.598v-8.177c-.2-5.386-2.194-7.979-6.183-7.979m20.144 1.995c-.4-.798-.997-1.197-1.596-1.596-.798-.4-1.795-.598-2.992-.598-1.994 0-3.79.398-5.385.996-.398.2-.597.4-.597.998l.4 1.396c.198.598.398.798.796.598a12.823 12.823 0 0 1 4.388-.798c.997 0 1.595.2 1.994.798.4.598.598 1.596.4 2.793l-.4-.2c-.2 0-.598-.198-1.197-.198-.4.2-.797.2-1.396.2-1.995 0-3.392.398-4.588 1.395-1.197.997-1.596 2.194-1.596 3.79s.4 2.992 1.396 3.99c.998.996 2.194 1.395 3.59 1.395 1.796 0 3.39-.598 4.787-1.994l.398 1.196c.2.4.4.6.6.6h1.195c.2 0 .4 0 .6-.2.198-.2.198-.4.198-.6V18.75c0-1.198 0-2.195-.198-2.993-.2-.598-.4-1.396-.798-2.194M91.31 23.735c-.2.4-.797.998-1.396 1.396-.798.4-1.396.6-2.194.6s-1.396-.2-1.795-.798c-.4-.4-.598-1.197-.598-1.795 0-.798.2-1.396.798-1.995.598-.4 1.396-.797 2.393-.797.598 0 1.197 0 1.795.2.6.198.997.198.997.398v2.792m16.555 2.793l-.598-1.596c-.2-.4-.4-.598-.997-.4a3.834 3.834 0 0 1-2.394.8c-.4 0-.798-.2-.997-.4-.2-.2-.4-.598-.4-1.396V14.96h4.19c.198 0 .397 0 .597-.2.2-.2.2-.4.2-.6v-1.594c0-.2 0-.4-.2-.6h-4.788V7.38c0-.2 0-.4-.2-.598-.2-.2-.398-.2-.598-.2h-1.994c-.2 0-.4 0-.6.2-.198.2-.198.398-.198.598v4.587h-1.795c-.4 0-.798.2-.798.798v1.396c0 .2 0 .4.2.6.2.2.398.2.598.2h1.795v8.975c0 1.595.2 2.792.798 3.59.598.798 1.595 1.197 2.99 1.197.8 0 1.597-.2 2.395-.4s1.396-.598 1.795-.797c.997-.2 1.197-.598.997-.997z"/>
        <path fill="#62666c" fill-rule="evenodd" d="M6.94 10.77C6.543.4.16 0 .16 0c-.4 9.374 6.78 10.77 6.78 10.77z"/>
    </g>
</svg>
